HIERARCHY
ROOT Model
{
	OFFSET 0 0 0
	CHANNELS 6 Xposition Yposition Zposition Zrotation Xrotation Yrotation
	JOINT Model1
	{
		OFFSET 0 -2.25479 2.99384
		CHANNELS 3 Zrotation Xrotation Yrotation
		JOINT Model2
		{
			OFFSET 12.111 0 0
			CHANNELS 3 Zrotation Xrotation Yrotation
			JOINT Model3
			{
				OFFSET 11.5502 0 0
				CHANNELS 3 Zrotation Xrotation Yrotation
				JOINT Model4
				{
					OFFSET 11.781 0 0
					CHANNELS 3 Zrotation Xrotation Yrotation
					JOINT Model5
					{
						OFFSET 20.0601 0 0
						CHANNELS 3 Zrotation Xrotation Yrotation
						JOINT Model6
						{
							OFFSET 11.1962 0 0
							CHANNELS 3 Zrotation Xrotation Yrotation
							End Site
							{
								OFFSET 0 0 0
							}
						}
					}
					JOINT Model7
					{
						OFFSET 10.8223 0.417534 3.51114
						CHANNELS 3 Zrotation Xrotation Yrotation
						JOINT Model8
						{
							OFFSET -6.07943 0 0
							CHANNELS 3 Zrotation Xrotation Yrotation
							JOINT Model9
							{
								OFFSET -0.277412 10.39 -0.051239
								CHANNELS 3 Zrotation Xrotation Yrotation
								JOINT Model10
								{
									OFFSET -3.4391 -0.282043 1.86678
									CHANNELS 3 Zrotation Xrotation Yrotation
									JOINT Model11
									{
										OFFSET 13.0269 0 0
										CHANNELS 3 Zrotation Xrotation Yrotation
										JOINT Model12
										{
											OFFSET 10.8866 0 0
											CHANNELS 3 Zrotation Xrotation Yrotation
											JOINT Model13
											{
												OFFSET 16.7317 0 0
												CHANNELS 3 Zrotation Xrotation Yrotation
												JOINT Model14
												{
													OFFSET 11.8292 0 0
													CHANNELS 3 Zrotation Xrotation Yrotation
													JOINT Model15
													{
														OFFSET 4.82751 -3.73566 -0.836517
														CHANNELS 3 Zrotation Xrotation Yrotation
														JOINT Model16
														{
															OFFSET 3.75311 -0.0582886 -0.0186462
															CHANNELS 3 Zrotation Xrotation Yrotation
															JOINT Model17
															{
																OFFSET 2.88689 0.0192337 0.014801
																CHANNELS 3 Zrotation Xrotation Yrotation
																End Site
																{
																	OFFSET 0 0 0
																}
															}
														}
													}
													JOINT Model18
													{
														OFFSET 9.72197 -3.06458 0.23877
														CHANNELS 3 Zrotation Xrotation Yrotation
														JOINT Model19
														{
															OFFSET 4.61131 0 0
															CHANNELS 3 Zrotation Xrotation Yrotation
															JOINT Model20
															{
																OFFSET 2.8969 -7.62939e-006 0
																CHANNELS 3 Zrotation Xrotation Yrotation
																End Site
																{
																	OFFSET 0 0 0
																}
															}
														}
													}
													JOINT Model21
													{
														OFFSET 9.54431 -0.745064 0.588943
														CHANNELS 3 Zrotation Xrotation Yrotation
														JOINT Model22
														{
															OFFSET 5.33978 0 0
															CHANNELS 3 Zrotation Xrotation Yrotation
															JOINT Model23
															{
																OFFSET 3.03619 7.62939e-006 0
																CHANNELS 3 Zrotation Xrotation Yrotation
																End Site
																{
																	OFFSET 0 0 0
																}
															}
														}
													}
													JOINT Model24
													{
														OFFSET 9.47758 1.51286 0.485123
														CHANNELS 3 Zrotation Xrotation Yrotation
														JOINT Model25
														{
															OFFSET 4.96136 7.62939e-006 0
															CHANNELS 3 Zrotation Xrotation Yrotation
															JOINT Model26
															{
																OFFSET 2.51965 0 0
																CHANNELS 3 Zrotation Xrotation Yrotation
																End Site
																{
																	OFFSET 0 0 0
																}
															}
														}
													}
													JOINT Model27
													{
														OFFSET 9.34247 3.34117 -0.239273
														CHANNELS 3 Zrotation Xrotation Yrotation
														JOINT Model28
														{
															OFFSET 3.28259 2.28882e-005 0
															CHANNELS 3 Zrotation Xrotation Yrotation
															JOINT Model29
															{
																OFFSET 2.1292 0 0
																CHANNELS 3 Zrotation Xrotation Yrotation
																End Site
																{
																	OFFSET 0 0 0
																}
															}
														}
													}
												}
											}
										}
									}
								}
							}
						}
					}
					JOINT Model30
					{
						OFFSET 10.8223 0.4179 -3.51106
						CHANNELS 3 Zrotation Xrotation Yrotation
						JOINT Model31
						{
							OFFSET 6.07943 0 0
							CHANNELS 3 Zrotation Xrotation Yrotation
							JOINT Model32
							{
								OFFSET 0.277412 -10.39 0.051239
								CHANNELS 3 Zrotation Xrotation Yrotation
								JOINT Model33
								{
									OFFSET 3.4391 0.282043 -1.86678
									CHANNELS 3 Zrotation Xrotation Yrotation
									JOINT Model34
									{
										OFFSET -13.0269 0 0
										CHANNELS 3 Zrotation Xrotation Yrotation
										JOINT Model35
										{
											OFFSET -10.8866 0 0
											CHANNELS 3 Zrotation Xrotation Yrotation
											JOINT Model36
											{
												OFFSET -16.7317 0 0
												CHANNELS 3 Zrotation Xrotation Yrotation
												JOINT Model37
												{
													OFFSET -11.8292 0 0
													CHANNELS 3 Zrotation Xrotation Yrotation
													JOINT Model38
													{
														OFFSET -4.82751 3.73566 0.836517
														CHANNELS 3 Zrotation Xrotation Yrotation
														JOINT Model39
														{
															OFFSET -3.75311 0.0582886 0.0186462
															CHANNELS 3 Zrotation Xrotation Yrotation
															JOINT Model40
															{
																OFFSET -2.88688 -0.0192337 -0.014801
																CHANNELS 3 Zrotation Xrotation Yrotation
																End Site
																{
																	OFFSET 0 0 0
																}
															}
														}
													}
													JOINT Model41
													{
														OFFSET -9.72197 3.06459 -0.23877
														CHANNELS 3 Zrotation Xrotation Yrotation
														JOINT Model42
														{
															OFFSET -4.6113 0 0
															CHANNELS 3 Zrotation Xrotation Yrotation
															JOINT Model43
															{
																OFFSET -2.8969 0 0
																CHANNELS 3 Zrotation Xrotation Yrotation
																End Site
																{
																	OFFSET 0 0 0
																}
															}
														}
													}
													JOINT Model44
													{
														OFFSET -9.5443 0.745064 -0.588943
														CHANNELS 3 Zrotation Xrotation Yrotation
														JOINT Model45
														{
															OFFSET -5.33978 0 0
															CHANNELS 3 Zrotation Xrotation Yrotation
															JOINT Model46
															{
																OFFSET -3.03619 -1.52588e-005 0
																CHANNELS 3 Zrotation Xrotation Yrotation
																End Site
																{
																	OFFSET 0 0 0
																}
															}
														}
													}
													JOINT Model47
													{
														OFFSET -9.47759 -1.51286 -0.485123
														CHANNELS 3 Zrotation Xrotation Yrotation
														JOINT Model48
														{
															OFFSET -4.96136 -1.52588e-005 0
															CHANNELS 3 Zrotation Xrotation Yrotation
															JOINT Model49
															{
																OFFSET -2.51966 0 0
																CHANNELS 3 Zrotation Xrotation Yrotation
																End Site
																{
																	OFFSET 0 0 0
																}
															}
														}
													}
													JOINT Model50
													{
														OFFSET -9.34246 -3.34118 0.239273
														CHANNELS 3 Zrotation Xrotation Yrotation
														JOINT Model51
														{
															OFFSET -3.2826 -1.90735e-005 0
															CHANNELS 3 Zrotation Xrotation Yrotation
															JOINT Model52
															{
																OFFSET -2.1292 0 0
																CHANNELS 3 Zrotation Xrotation Yrotation
																End Site
																{
																	OFFSET 0 0 0
																}
															}
														}
													}
												}
											}
										}
									}
								}
							}
						}
					}
				}
			}
		}
	}
	JOINT Model53
	{
		OFFSET 4.38026 -2.14632 -1.11516
		CHANNELS 3 Zrotation Xrotation Yrotation
		JOINT Model54
		{
			OFFSET 0 0 4.95
			CHANNELS 3 Zrotation Xrotation Yrotation
			JOINT Model55
			{
				OFFSET 18.5642 0 0
				CHANNELS 3 Zrotation Xrotation Yrotation
				JOINT Model56
				{
					OFFSET 21.2884 0 1.52588e-005
					CHANNELS 3 Zrotation Xrotation Yrotation
					JOINT Model57
					{
						OFFSET 30.261 0 0
						CHANNELS 3 Zrotation Xrotation Yrotation
						JOINT Model58
						{
							OFFSET 11.7259 0 0
							CHANNELS 3 Zrotation Xrotation Yrotation
							JOINT Model59
							{
								OFFSET 10.682 0 0
								CHANNELS 3 Zrotation Xrotation Yrotation
								End Site
								{
									OFFSET 0 0 0
								}
							}
						}
					}
				}
			}
		}
	}
	JOINT Model60
	{
		OFFSET -4.38026 -2.14632 -1.11516
		CHANNELS 3 Zrotation Xrotation Yrotation
		JOINT Model61
		{
			OFFSET 0 0 -4.95
			CHANNELS 3 Zrotation Xrotation Yrotation
			JOINT Model62
			{
				OFFSET -18.5642 0 0
				CHANNELS 3 Zrotation Xrotation Yrotation
				JOINT Model63
				{
					OFFSET -21.2884 0 -1.52588e-005
					CHANNELS 3 Zrotation Xrotation Yrotation
					JOINT Model64
					{
						OFFSET -30.261 0 0
						CHANNELS 3 Zrotation Xrotation Yrotation
						JOINT Model65
						{
							OFFSET -11.7259 0 0
							CHANNELS 3 Zrotation Xrotation Yrotation
							JOINT Model66
							{
								OFFSET -10.682 0 0
								CHANNELS 3 Zrotation Xrotation Yrotation
								End Site
								{
									OFFSET 0 0 0
								}
							}
						}
					}
				}
			}
		}
	}
}
MOTION
Frames: 4
Frame Time: 0.033333
101.371 160.806 27.6403 98.8869 -2.01951 91.4922 -180 4.29621e-031 -90 0.869185 0.196913 0.120469 1.73797 0.395194 0.237938 1.73797 0.395631 0.237925 7.58793 2.28466 5.33554 18.3479 2.70117 -3.93943 120.092 75.5343 58.4939 17.4249 4.28172 -1.9093 -167.277 84.4999 48.8109 161.478 -16.4766 -32.0945 6.42531e-006 3.65907 2.81118e-005 -1.78468 12.3995 8.66999 1.39253e-006 18.8624 1.88169e-006 -0.171419 0.00221265 -1.47889 -72.0648 39.0385 39.3397 33.3638 2.10362 14.835 0.588947 0.308273 6.35287 -99.6409 81.413 100.35 -0.0181409 2.77024e-005 -0.117315 -0.124139 0.00241104 -0.799296 -79.8382 79.5773 80.5374 -0.000225778 -0.000221034 2.21576e-005 -0.000956229 0.000122745 -2.73705e-005 -66.7416 80.4058 67.2171 -0.000437136 1.58672e-005 -2.73562e-005 -0.000136609 -0.000109397 -5.46895e-005 -6.42159 81.2158 8.01779 -0.000218582 1.70638e-005 0.000212088 0.000901563 -0.00018459 -0.000218637 -59.9282 75.5373 58.5147 -1.5903 -6.56435 -1.57258 -167.277 84.4999 48.8109 -178.862 -28.7195 -22.2451 1.19103e-005 -8.81809 2.76657e-005 -49.6867 18.5165 0.488641 -1.18394e-005 27.1193 6.19934e-006 20.4157 3.09223 17.0496 -72.0648 39.0385 39.3397 33.3638 2.10361 14.835 0.588946 0.308273 6.35287 -99.6409 81.413 100.35 -0.0181409 3.02072e-005 -0.117315 -0.124139 0.00241131 -0.799296 -79.8382 79.5773 80.5374 -0.000260646 -0.000218449 2.35918e-005 -0.000956227 0.000123155 -2.72918e-005 -66.7416 80.4058 67.2171 -0.000437132 1.50086e-005 -2.72994e-005 -0.000136604 -0.000109111 -5.46127e-005 -6.42159 81.2158 8.01779 -0.00021856 1.9775e-005 0.000212314 0.000901591 -0.00019098 -0.000218542 0.000811311 0.56661 89.91 35.9647 57.9687 -6.69169 -180 87.3402 180 41.3697 -70.5271 -0.0166756 180 -74.1317 180 -27.6307 -6.17985 7.85556 -35.4947 4.17294e-007 -1.51153e-007 -180 -0.566579 -90.09 -13.7602 0.745117 -6.47948 1.99561e-006 5.41507 -6.83989e-008 40.89 -6.50236 -4.34827 1.22273e-007 -9.85954 -6.53946e-007 -64.3392 -11.5287 5.9027 -35.4976 -0.00820105 0.000443135 
101.338 160.796 27.6533 98.9044 -1.9458 91.4299 -180 4.29621e-031 -90 0.886231 0.188966 0.0789297 1.77221 0.378692 0.154928 1.77221 0.379129 0.154915 6.676 2.44822 4.73945 19.255 2.88342 -2.80862 120.092 75.5343 58.4939 18.2285 3.74872 -2.14527 -167.277 84.4999 48.8109 161.204 -16.314 -31.115 6.4793e-006 3.54923 2.81084e-005 -1.70888 12.188 8.45418 1.40397e-006 18.5321 1.87802e-006 -0.115226 0.00137017 -1.3624 -72.0648 39.0385 39.3397 33.3638 2.10362 14.835 0.588947 0.308273 6.35287 -99.6409 81.413 100.35 -0.0181409 2.77024e-005 -0.117315 -0.124139 0.00241104 -0.799296 -79.8382 79.5773 80.5374 -0.000225778 -0.000221034 2.21576e-005 -0.000956229 0.000122745 -2.73705e-005 -66.7416 80.4058 67.2171 -0.000437136 1.58672e-005 -2.73562e-005 -0.000136609 -0.000109397 -5.46895e-005 -6.42159 81.2158 8.01779 -0.000218582 1.70638e-005 0.000212088 0.000901563 -0.00018459 -0.000218637 -59.9282 75.5373 58.5147 -1.92175 -6.67321 -1.57243 -167.277 84.4999 48.8109 -179.161 -28.7113 -22.4746 1.19125e-005 -8.82263 2.76661e-005 -49.5714 18.5041 0.487768 -1.18372e-005 27.1012 6.19834e-006 20.5525 3.10675 17.0138 -72.0648 39.0385 39.3397 33.3638 2.10361 14.835 0.588946 0.308273 6.35287 -99.6409 81.413 100.35 -0.0181409 3.02072e-005 -0.117315 -0.124139 0.00241131 -0.799296 -79.8382 79.5773 80.5374 -0.000260646 -0.000218449 2.35918e-005 -0.000956227 0.000123155 -2.72918e-005 -66.7416 80.4058 67.2171 -0.000437132 1.50086e-005 -2.72994e-005 -0.000136604 -0.000109111 -5.46127e-005 -6.42159 81.2158 8.01779 -0.00021856 1.9775e-005 0.000212314 0.000901591 -0.00019098 -0.000218542 0.000811311 0.56661 89.91 36.2648 58.0415 -7.00348 -180 86.9643 180 41.3451 -70.6722 -0.0167939 180 -73.9141 180 -27.6003 -6.10656 7.77879 -35.4947 4.1686e-007 -1.49532e-007 -180 -0.566579 -90.09 -13.8641 0.841423 -6.68672 1.99593e-006 5.68334 -6.843e-008 41.1559 -6.55104 -3.83053 1.21494e-007 -9.92676 -6.5408e-007 -64.5151 -11.1694 5.66476 -35.4985 -0.0106159 0.000447574 
101.322 160.793 27.6563 98.9444 -1.97381 91.421 -180 4.29621e-031 -90 0.89874 0.187465 0.0814657 1.79723 0.375748 0.159982 1.79723 0.376185 0.159968 6.07082 2.59343 4.20719 19.8991 3.00826 -2.18852 120.092 75.5343 58.4939 18.1712 3.36339 -2.19065 -167.277 84.4999 48.8109 160.842 -16.0705 -30.9618 6.41145e-006 3.68727 2.81127e-005 -1.66427 12.0479 8.33463 1.41148e-006 18.3146 1.87564e-006 -0.160786 0.00180338 -1.28512 -72.0648 39.0385 39.3397 33.3638 2.10362 14.835 0.588947 0.308273 6.35287 -99.6409 81.413 100.35 -0.0181409 2.77024e-005 -0.117315 -0.124139 0.00241104 -0.799296 -79.8382 79.5773 80.5374 -0.000225778 -0.000221034 2.21576e-005 -0.000956229 0.000122745 -2.73705e-005 -66.7416 80.4058 67.2171 -0.000437136 1.58672e-005 -2.73562e-005 -0.000136609 -0.000109397 -5.46895e-005 -6.42159 81.2158 8.01779 -0.000218582 1.70638e-005 0.000212088 0.000901563 -0.00018459 -0.000218637 -59.9282 75.5373 58.5147 -1.68219 -6.61964 -1.58086 -167.277 84.4999 48.8109 -178.985 -28.6097 -22.1217 1.18817e-005 -8.7596 2.76613e-005 -49.8068 18.0334 0.488181 -1.17519e-005 26.3942 6.15991e-006 21.2483 3.20016 16.9401 -72.0648 39.0385 39.3397 33.3638 2.10361 14.835 0.588946 0.308273 6.35287 -99.6409 81.413 100.35 -0.0181409 3.02072e-005 -0.117315 -0.124139 0.00241131 -0.799296 -79.8382 79.5773 80.5374 -0.000260646 -0.000218449 2.35918e-005 -0.000956227 0.000123155 -2.72918e-005 -66.7416 80.4058 67.2171 -0.000437132 1.50086e-005 -2.72994e-005 -0.000136604 -0.000109111 -5.46127e-005 -6.42159 81.2158 8.01779 -0.00021856 1.9775e-005 0.000212314 0.000901591 -0.00019098 -0.000218542 0.000811311 0.56661 89.91 36.3051 58.0575 -7.00352 -180 86.939 180 41.3425 -70.7024 -0.0168178 180 -73.8687 180 -27.5896 -6.08531 7.75685 -35.4947 4.14983e-007 -1.47989e-007 -180 -0.566579 -90.09 -13.8662 0.836941 -6.73606 1.99596e-006 5.70844 -6.8433e-008 41.1792 -6.47539 -3.77866 1.22818e-007 -9.81248 -6.53853e-007 -64.5627 -11.0893 5.61058 -35.4986 -0.0110519 0.000451936 
101.321 160.791 27.6523 99.0463 -2.05088 91.4201 -180 4.29621e-031 -90 0.927244 0.189064 0.0896071 1.85421 0.379116 0.176144 1.85421 0.379553 0.17613 5.76179 2.68424 4.08881 20.1589 3.08547 -2.15943 120.092 75.5343 58.4939 18.0266 3.10658 -2.20127 -167.277 84.4999 48.8109 160.627 -15.9622 -30.978 6.38649e-006 3.73802 2.81143e-005 -1.64632 12.0318 8.25723 1.41243e-006 18.2869 1.87534e-006 -0.199388 0.00218328 -1.25834 -72.0648 39.0385 39.3397 33.3638 2.10362 14.835 0.588947 0.308273 6.35287 -99.6409 81.413 100.35 -0.0181409 2.77024e-005 -0.117315 -0.124139 0.00241104 -0.799296 -79.8382 79.5773 80.5374 -0.000225778 -0.000221034 2.21576e-005 -0.000956229 0.000122745 -2.73705e-005 -66.7416 80.4058 67.2171 -0.000437136 1.58672e-005 -2.73562e-005 -0.000136609 -0.000109397 -5.46895e-005 -6.42159 81.2158 8.01779 -0.000218582 1.70638e-005 0.000212088 0.000901563 -0.00018459 -0.000218637 -59.9282 75.5373 58.5147 -1.05924 -6.46758 -1.5996 -167.277 84.4999 48.8109 -178.506 -28.3802 -21.3256 1.17984e-005 -8.58885 2.76488e-005 -50.1242 17.1607 0.488157 -1.15963e-005 25.0838 6.09236e-006 22.3045 3.3061 16.6567 -72.0648 39.0385 39.3397 33.3638 2.10361 14.835 0.588946 0.308273 6.35287 -99.6409 81.413 100.35 -0.0181409 3.02072e-005 -0.117315 -0.124139 0.00241131 -0.799296 -79.8382 79.5773 80.5374 -0.000260646 -0.000218449 2.35918e-005 -0.000956227 0.000123155 -2.72918e-005 -66.7416 80.4058 67.2171 -0.000437132 1.50086e-005 -2.72994e-005 -0.000136604 -0.000109111 -5.46127e-005 -6.42159 81.2158 8.01779 -0.00021856 1.9775e-005 0.000212314 0.000901591 -0.00019098 -0.000218542 0.000811311 0.56661 89.91 36.2901 58.075 -6.85236 -180 87.0383 180 41.3487 -70.7118 -0.0168249 180 -73.8546 180 -27.5964 -6.06653 7.73454 -35.4947 4.11696e-007 -1.46525e-007 -180 -0.566579 -90.09 -13.7767 0.837545 -6.75277 1.99599e-006 5.72951 -6.84355e-008 41.1531 -6.42683 -3.78905 1.23663e-007 -9.73954 -6.53709e-007 -64.56 -11.105 5.62011 -35.4987 -0.0108021 0.000456223 
